<?xml version="1.0" encoding="utf-8"?>
<!-- Generator: Adobe Illustrator 21.1.0, SVG Export Plug-In . SVG Version: 6.00 Build 0)  -->
<svg style="fill: currentColor" version="1.1" id="Layer_1" xmlns="http://www.w3.org/2000/svg" xmlns:xlink="http://www.w3.org/1999/xlink" x="0px" y="0px"
	 viewBox="0 0 93.5 62.4" enable-background="new 0 0 93.5 62.4" xml:space="preserve">
<polyline  points="93.5,24.9 51.4,24.9 51.4,0 42.1,0 42.1,24.9 0,24.9 0,37.4 42.1,37.4 42.1,62.4 51.4,62.4
	51.4,37.4 93.5,37.4 "/>
<path d="M62.4,41.6h5.9l25.2,17.2v3.6 M31.2,20.8h-5.9L0,3.6V0L31.2,20.8z M31.2,41.6h5.9L5.9,62.4H0L31.2,41.6z
	 M62.4,20.8h-5.9L87.6,0h5.9L62.4,20.8z"/>
<path  d="M0,41.6v13.8l20.7-13.8 M93.5,41.6v13.8L72.8,41.6H93.5z M0,20.8V7l20.7,13.8H0z M93.5,20.8V7L72.8,20.8
	H93.5z M39,62.4v-19l-28.5,19H39z M54.6,62.4v-19l28.5,19H54.6z M39,0v19L10.5,0H39z M54.6,0v19L83.1,0H54.6z"/>
</svg>
