<svg id="Layer_1" data-name="Layer 1" xmlns="http://www.w3.org/2000/svg" viewBox="0 0 62 55"><defs><style>.cls-1{fill:#dfe7ef;}</style></defs><title>left-quote</title><path class="cls-1" d="M59,0l3,4Q53,11,48,18T44,30a5,5,0,0,0,1,2h7a10,10,0,0,1,7,3,11,11,0,0,1,3,8,12,12,0,0,1-3,9,10,10,0,0,1-7,4q-6,0-11-5T35,36a34,34,0,0,1,6-19Q46,9,59,0Z"/><path class="cls-1" d="M24,0l3,4Q18,11,13,18T9,30a5,5,0,0,0,1,2h7a10,10,0,0,1,7,3,11,11,0,0,1,3,8,12,12,0,0,1-3,9,10,10,0,0,1-7,4Q9,55,5,50T0,36A34,34,0,0,1,6,18Q11,9,24,0Z"/></svg>